<svg width="162" height="43" viewBox="0 0 162 43" fill="none" xmlns="http://www.w3.org/2000/svg">
<path d="M2.20806 1.19996H9.12006C11.4561 1.19996 13.3761 1.78396 14.8801 2.95196C16.4001 4.10396 17.1601 5.71996 17.1601 7.79996V11.376C17.1601 13.552 16.4241 15.2 14.9521 16.32C13.4801 17.44 11.5441 18 9.14406 18H2.20806C2.03206 18 1.88006 17.936 1.75206 17.808C1.62406 17.68 1.56006 17.528 1.56006 17.352V1.84796C1.56006 1.67196 1.62406 1.51996 1.75206 1.39196C1.88006 1.26396 2.03206 1.19996 2.20806 1.19996ZM7.56006 5.87996V13.32H9.12006C9.66406 13.32 10.0961 13.16 10.4161 12.84C10.7521 12.504 10.9201 12.016 10.9201 11.376V7.79996C10.9201 6.51996 10.3201 5.87996 9.12006 5.87996H7.56006Z" fill="#2C2C2C"/>
<path d="M31.8664 13.176H24.7144V13.296C24.7144 14.272 25.0264 14.76 25.6504 14.76C25.8264 14.76 26.0424 14.632 26.2984 14.376C26.5544 14.12 26.8344 13.992 27.1384 13.992H31.6744C32.0264 13.992 32.2024 14.168 32.2024 14.52C32.2024 15.304 31.6104 16.12 30.4264 16.968C29.2584 17.816 27.6664 18.24 25.6504 18.24C23.6504 18.24 22.0104 17.72 20.7304 16.68C19.4664 15.624 18.8344 14.176 18.8344 12.336V11.184C18.8344 9.43996 19.4824 8.02396 20.7784 6.93596C22.0744 5.83196 23.7704 5.27996 25.8664 5.27996C27.9784 5.27996 29.6104 5.89596 30.7624 7.12796C31.9304 8.35996 32.5144 9.91996 32.5144 11.808V12.528C32.5144 12.704 32.4504 12.856 32.3224 12.984C32.1944 13.112 32.0424 13.176 31.8664 13.176ZM26.6344 10.08C26.6344 9.11996 26.3144 8.63996 25.6744 8.63996C25.0344 8.63996 24.7144 9.11996 24.7144 10.08V10.176H26.6344V10.08Z" fill="#2C2C2C"/>
<path d="M48.322 10.728V17.352C48.322 17.528 48.258 17.68 48.13 17.808C48.002 17.936 47.85 18 47.674 18H43.09C42.914 18 42.762 17.936 42.634 17.808C42.506 17.68 42.442 17.528 42.442 17.352V10.896C42.442 10.016 42.042 9.57596 41.242 9.57596C40.442 9.57596 40.042 10.016 40.042 10.896V17.352C40.042 17.528 39.978 17.68 39.85 17.808C39.722 17.936 39.57 18 39.394 18H34.834C34.658 18 34.506 17.936 34.378 17.808C34.25 17.68 34.186 17.528 34.186 17.352V6.16796C34.186 5.99196 34.25 5.83996 34.378 5.71196C34.506 5.58396 34.658 5.51996 34.834 5.51996H39.034C39.21 5.51996 39.362 5.58396 39.49 5.71196C39.618 5.83996 39.682 5.99196 39.682 6.16796V6.95996C40.098 6.46396 40.658 6.06396 41.362 5.75996C42.082 5.43996 42.85 5.27996 43.666 5.27996C44.978 5.27996 46.082 5.74396 46.978 6.67196C47.874 7.58396 48.322 8.93596 48.322 10.728Z" fill="#2C2C2C"/>
<path d="M50.2322 12.576V10.944C50.2322 9.11996 50.8802 7.71996 52.1762 6.74396C53.4722 5.76796 55.1442 5.27996 57.1922 5.27996C59.2402 5.27996 60.9122 5.76796 62.2082 6.74396C63.5042 7.71996 64.1522 9.11996 64.1522 10.944V12.576C64.1522 14.416 63.5282 15.824 62.2802 16.8C61.0322 17.76 59.3362 18.24 57.1922 18.24C55.0482 18.24 53.3522 17.76 52.1042 16.8C50.8562 15.824 50.2322 14.416 50.2322 12.576ZM58.2722 12.768V10.752C58.2722 10.144 58.1922 9.71996 58.0322 9.47996C57.8722 9.23996 57.5922 9.11996 57.1922 9.11996C56.7922 9.11996 56.5122 9.23996 56.3522 9.47996C56.1922 9.71996 56.1122 10.144 56.1122 10.752V12.768C56.1122 13.408 56.1922 13.84 56.3522 14.064C56.5122 14.288 56.7922 14.4 57.1922 14.4C57.5922 14.4 57.8722 14.28 58.0322 14.04C58.1922 13.8 58.2722 13.376 58.2722 12.768Z" fill="#2C2C2C"/>
<path d="M79.7386 1.19996H84.9466C85.5226 1.19996 85.8826 1.46396 86.0266 1.99196L91.3786 17.304C91.3946 17.352 91.4026 17.432 91.4026 17.544C91.4026 17.64 91.3466 17.744 91.2346 17.856C91.1386 17.952 91.0186 18 90.8746 18H86.4346C85.9546 18 85.6426 17.8 85.4986 17.4L84.9226 15.816H79.7626L79.1866 17.4C79.0426 17.8 78.7306 18 78.2506 18H73.8106C73.6666 18 73.5386 17.952 73.4266 17.856C73.3306 17.744 73.2826 17.64 73.2826 17.544C73.2826 17.432 73.2906 17.352 73.3066 17.304L78.6586 1.99196C78.8026 1.46396 79.1626 1.19996 79.7386 1.19996ZM80.9866 11.136H83.6986L82.3306 6.67196L80.9866 11.136Z" fill="#2C2C2C"/>
<path d="M99.3503 18H95.5103C95.1743 18 94.9103 17.8 94.7183 17.4L90.1103 6.28796C90.0943 6.23996 90.0863 6.15996 90.0863 6.04796C90.0863 5.93596 90.1423 5.82396 90.2543 5.71196C90.3663 5.59996 90.5023 5.54396 90.6623 5.54396H94.7183C95.1023 5.54396 95.3663 5.73596 95.5103 6.11996L97.4303 11.688L99.3503 6.09596C99.4943 5.71196 99.7583 5.51996 100.142 5.51996H104.198C104.358 5.51996 104.494 5.57596 104.606 5.68796C104.718 5.79996 104.774 5.91196 104.774 6.02396C104.774 6.13596 104.766 6.21596 104.75 6.26396L100.142 17.4C99.9503 17.8 99.6863 18 99.3503 18Z" fill="#2C2C2C"/>
<path d="M104.645 14.424C104.645 12.264 106.397 10.88 109.901 10.272L112.445 9.86396C112.445 9.38396 112.405 9.06396 112.325 8.90396C112.245 8.72796 112.053 8.63996 111.749 8.63996C111.461 8.63996 111.173 8.76796 110.885 9.02396C110.597 9.27996 110.325 9.40796 110.069 9.40796H105.989C105.637 9.40796 105.461 9.23996 105.461 8.90396C105.461 8.55196 105.581 8.18396 105.821 7.79996C106.077 7.39996 106.437 7.00796 106.901 6.62396C107.381 6.23996 108.045 5.91996 108.893 5.66396C109.757 5.40796 110.717 5.27996 111.773 5.27996C113.917 5.27996 115.525 5.72796 116.597 6.62396C117.669 7.51996 118.205 8.79996 118.205 10.464V17.352C118.205 17.528 118.141 17.68 118.013 17.808C117.885 17.936 117.733 18 117.557 18H113.357C113.181 18 113.029 17.936 112.901 17.808C112.773 17.68 112.709 17.528 112.709 17.352V16.68C111.957 17.72 110.861 18.24 109.421 18.24C107.981 18.24 106.821 17.88 105.941 17.16C105.077 16.424 104.645 15.512 104.645 14.424ZM110.957 14.688C111.997 14.688 112.517 14.064 112.517 12.816L111.101 13.128C110.397 13.288 110.045 13.584 110.045 14.016C110.045 14.208 110.125 14.368 110.285 14.496C110.445 14.624 110.669 14.688 110.957 14.688Z" fill="#2C2C2C"/>
<path d="M127.674 9.71996V12.36C127.674 13.16 128.018 13.56 128.706 13.56H130.889C131.065 13.56 131.218 13.624 131.346 13.752C131.474 13.88 131.538 14.032 131.538 14.208V17.352C131.538 17.528 131.474 17.68 131.346 17.808C131.218 17.936 131.065 18 130.889 18H128.178C124.178 18 122.177 16.28 122.177 12.84V9.71996H120.282C120.106 9.71996 119.954 9.65596 119.826 9.52796C119.698 9.39996 119.633 9.24796 119.633 9.07196V6.16796C119.633 5.99196 119.698 5.83996 119.826 5.71196C119.954 5.58396 120.106 5.51996 120.282 5.51996H122.177V1.60796C122.177 1.43196 122.241 1.27996 122.369 1.15196C122.497 1.02396 122.65 0.959961 122.826 0.959961H127.025C127.201 0.959961 127.353 1.02396 127.481 1.15196C127.609 1.27996 127.674 1.43196 127.674 1.60796V5.51996H130.697C130.873 5.51996 131.026 5.58396 131.154 5.71196C131.282 5.83996 131.346 5.99196 131.346 6.16796V9.07196C131.346 9.24796 131.282 9.39996 131.154 9.52796C131.026 9.65596 130.873 9.71996 130.697 9.71996H127.674Z" fill="#2C2C2C"/>
<path d="M133.343 14.424C133.343 12.264 135.095 10.88 138.599 10.272L141.143 9.86396C141.143 9.38396 141.103 9.06396 141.023 8.90396C140.943 8.72796 140.751 8.63996 140.447 8.63996C140.159 8.63996 139.871 8.76796 139.583 9.02396C139.295 9.27996 139.024 9.40796 138.768 9.40796H134.688C134.336 9.40796 134.16 9.23996 134.16 8.90396C134.16 8.55196 134.28 8.18396 134.52 7.79996C134.776 7.39996 135.135 7.00796 135.599 6.62396C136.079 6.23996 136.743 5.91996 137.591 5.66396C138.455 5.40796 139.415 5.27996 140.471 5.27996C142.615 5.27996 144.224 5.72796 145.296 6.62396C146.368 7.51996 146.903 8.79996 146.903 10.464V17.352C146.903 17.528 146.839 17.68 146.711 17.808C146.583 17.936 146.431 18 146.255 18H142.055C141.879 18 141.727 17.936 141.599 17.808C141.471 17.68 141.408 17.528 141.408 17.352V16.68C140.656 17.72 139.559 18.24 138.119 18.24C136.679 18.24 135.519 17.88 134.639 17.16C133.775 16.424 133.343 15.512 133.343 14.424ZM139.655 14.688C140.695 14.688 141.215 14.064 141.215 12.816L139.799 13.128C139.095 13.288 138.743 13.584 138.743 14.016C138.743 14.208 138.823 14.368 138.983 14.496C139.143 14.624 139.367 14.688 139.655 14.688Z" fill="#2C2C2C"/>
<path d="M154.908 6.16796V7.00796C156.028 6.01596 157.276 5.51996 158.652 5.51996H159.804C159.98 5.51996 160.132 5.58396 160.26 5.71196C160.388 5.83996 160.452 5.99196 160.452 6.16796V9.91196C160.452 10.088 160.388 10.24 160.26 10.368C160.132 10.496 159.98 10.56 159.804 10.56H156.708C156.276 10.56 155.932 10.664 155.676 10.872C155.436 11.064 155.3 11.328 155.268 11.664V17.352C155.268 17.528 155.204 17.68 155.076 17.808C154.948 17.936 154.796 18 154.62 18H150.06C149.884 18 149.732 17.936 149.604 17.808C149.476 17.68 149.412 17.528 149.412 17.352V6.16796C149.412 5.99196 149.476 5.83996 149.604 5.71196C149.732 5.58396 149.884 5.51996 150.06 5.51996H154.26C154.436 5.51996 154.588 5.58396 154.716 5.71196C154.844 5.83996 154.908 5.99196 154.908 6.16796Z" fill="#2C2C2C"/>
<path d="M1.07397 42.8636H2.24727V38.8266H2.3467C2.60522 39.2443 3.10238 40.159 4.57398 40.159C6.48307 40.159 7.81545 38.6278 7.81545 36.2016C7.81545 33.7954 6.48307 32.2641 4.55409 32.2641C3.06261 32.2641 2.60522 33.1789 2.3467 33.5766H2.2075V32.3636H1.07397V42.8636ZM2.22738 36.1818C2.22738 34.4715 2.98307 33.3181 4.41488 33.3181C5.90636 33.3181 6.64216 34.571 6.64216 36.1818C6.64216 37.8124 5.88647 39.105 4.41488 39.105C3.00295 39.105 2.22738 37.9119 2.22738 36.1818Z" fill="#2C2C2C"/>
<path d="M12.4275 40.159C14.4957 40.159 15.8877 38.588 15.8877 36.2215C15.8877 33.8352 14.4957 32.2641 12.4275 32.2641C10.3593 32.2641 8.96727 33.8352 8.96727 36.2215C8.96727 38.588 10.3593 40.159 12.4275 40.159ZM12.4275 39.105C10.8565 39.105 10.1406 37.7528 10.1406 36.2215C10.1406 34.6903 10.8565 33.3181 12.4275 33.3181C13.9985 33.3181 14.7144 34.6903 14.7144 36.2215C14.7144 37.7528 13.9985 39.105 12.4275 39.105Z" fill="#2C2C2C"/>
<path d="M18.8691 39.9999H20.0225L21.693 34.1335H21.8123L23.4827 39.9999H24.6361L26.9628 32.3636H25.7299L24.0793 38.1903H23.9998L22.389 32.3636H21.1361L19.5055 38.2102H19.4259L17.7753 32.3636H16.5424L18.8691 39.9999Z" fill="#2C2C2C"/>
<path d="M31.1759 40.159C32.727 40.159 33.8606 39.3835 34.2185 38.23L33.085 37.9119C32.7867 38.7073 32.0957 39.105 31.1759 39.105C29.7988 39.105 28.8492 38.2151 28.7945 36.5795H34.3378V36.0823C34.3378 33.2386 32.6475 32.2641 31.0566 32.2641C28.9884 32.2641 27.6163 33.8948 27.6163 36.2414C27.6163 38.588 28.9685 40.159 31.1759 40.159ZM28.7945 35.5653C28.8741 34.3771 29.7143 33.3181 31.0566 33.3181C32.3293 33.3181 33.1447 34.2727 33.1447 35.5653H28.7945Z" fill="#2C2C2C"/>
<path d="M35.8426 39.9999H37.0159V35.1675C37.0159 34.1335 37.8313 33.3778 38.9449 33.3778C39.2581 33.3778 39.5813 33.4374 39.6608 33.4573V32.2641C39.5266 32.2542 39.2184 32.2443 39.0444 32.2443C38.1296 32.2443 37.3341 32.7613 37.0557 33.517H36.9762V32.3636H35.8426V39.9999Z" fill="#2C2C2C"/>
<path d="M43.7409 40.159C45.292 40.159 46.4256 39.3835 46.7835 38.23L45.65 37.9119C45.3517 38.7073 44.6607 39.105 43.7409 39.105C42.3638 39.105 41.4142 38.2151 41.3595 36.5795H46.9028V36.0823C46.9028 33.2386 45.2125 32.2641 43.6216 32.2641C41.5534 32.2641 40.1813 33.8948 40.1813 36.2414C40.1813 38.588 41.5335 40.159 43.7409 40.159ZM41.3595 35.5653C41.4391 34.3771 42.2793 33.3181 43.6216 33.3181C44.8943 33.3181 45.7097 34.2727 45.7097 35.5653H41.3595Z" fill="#2C2C2C"/>
<path d="M51.2912 40.159C52.7628 40.159 53.2599 39.2443 53.5184 38.8266H53.6576V39.9999H54.7912V29.8181H53.6179V33.5766H53.5184C53.2599 33.1789 52.8025 32.2641 51.3111 32.2641C49.3821 32.2641 48.0497 33.7954 48.0497 36.2016C48.0497 38.6278 49.3821 40.159 51.2912 40.159ZM51.4503 39.105C49.9787 39.105 49.223 37.8124 49.223 36.1818C49.223 34.571 49.9588 33.3181 51.4503 33.3181C52.8821 33.3181 53.6378 34.4715 53.6378 36.1818C53.6378 37.9119 52.8622 39.105 51.4503 39.105Z" fill="#2C2C2C"/>
<path d="M60.6395 39.9999H61.7731V38.8266H61.9123C62.1708 39.2443 62.668 40.159 64.1395 40.159C66.0486 40.159 67.381 38.6278 67.381 36.2016C67.381 33.7954 66.0486 32.2641 64.1197 32.2641C62.6282 32.2641 62.1708 33.1789 61.9123 33.5766H61.8128V29.8181H60.6395V39.9999ZM61.793 36.1818C61.793 34.4715 62.5486 33.3181 63.9805 33.3181C65.4719 33.3181 66.2077 34.571 66.2077 36.1818C66.2077 37.8124 65.452 39.105 63.9805 39.105C62.5685 39.105 61.793 37.9119 61.793 36.1818Z" fill="#2C2C2C"/>
<path d="M69.378 42.8636C70.437 42.8636 71.1827 42.3018 71.6252 41.1136L74.8766 32.3835L73.5939 32.3636L71.486 38.4488H71.4064L69.2985 32.3636H68.0257L70.8496 40.0397L70.6309 40.6363C70.2033 41.7996 69.6763 41.909 68.8212 41.6903L68.5229 42.7244C68.6422 42.784 68.9803 42.8636 69.378 42.8636Z" fill="#2C2C2C"/>
<path d="M83.1076 39.9999C86.2099 39.9999 87.9599 38.071 87.9599 34.8891C87.9599 31.7272 86.2099 29.8181 83.2468 29.8181H79.9656V39.9999H83.1076ZM81.1985 38.9062V30.9119H83.1673C85.5536 30.9119 86.7667 32.4232 86.7667 34.8891C86.7667 37.3749 85.5536 38.9062 83.0281 38.9062H81.1985Z" fill="#2C2C2C"/>
<path d="M92.7907 40.159C94.3418 40.159 95.4753 39.3835 95.8333 38.23L94.6998 37.9119C94.4015 38.7073 93.7104 39.105 92.7907 39.105C91.4135 39.105 90.464 38.2151 90.4093 36.5795H95.9526V36.0823C95.9526 33.2386 94.2623 32.2641 92.6714 32.2641C90.6032 32.2641 89.231 33.8948 89.231 36.2414C89.231 38.588 90.5833 40.159 92.7907 40.159ZM90.4093 35.5653C90.4888 34.3771 91.329 33.3181 92.6714 33.3181C93.9441 33.3181 94.7594 34.2727 94.7594 35.5653H90.4093Z" fill="#2C2C2C"/>
<path d="M98.6307 35.4062C98.6307 34.0738 99.456 33.3181 100.58 33.3181C101.668 33.3181 102.33 34.0291 102.33 35.2272V39.9999H103.503V35.1477C103.503 33.1988 102.464 32.2641 100.918 32.2641C99.7642 32.2641 99.0483 32.7812 98.6904 33.5568H98.5909V32.3636H97.4574V39.9999H98.6307V35.4062Z" fill="#2C2C2C"/>
<path d="M108.469 40.159C110.537 40.159 111.929 38.588 111.929 36.2215C111.929 33.8352 110.537 32.2641 108.469 32.2641C106.401 32.2641 105.009 33.8352 105.009 36.2215C105.009 38.588 106.401 40.159 108.469 40.159ZM108.469 39.105C106.898 39.105 106.182 37.7528 106.182 36.2215C106.182 34.6903 106.898 33.3181 108.469 33.3181C110.04 33.3181 110.756 34.6903 110.756 36.2215C110.756 37.7528 110.04 39.105 108.469 39.105Z" fill="#2C2C2C"/>
<path d="M120.399 39.9999C123.501 39.9999 125.251 38.071 125.251 34.8891C125.251 31.7272 123.501 29.8181 120.538 29.8181H117.257V39.9999H120.399ZM118.49 38.9062V30.9119H120.459C122.845 30.9119 124.058 32.4232 124.058 34.8891C124.058 37.3749 122.845 38.9062 120.319 38.9062H118.49Z" fill="#2C2C2C"/>
<path d="M130.082 40.159C131.633 40.159 132.767 39.3835 133.125 38.23L131.991 37.9119C131.693 38.7073 131.002 39.105 130.082 39.105C128.705 39.105 127.755 38.2151 127.701 36.5795H133.244V36.0823C133.244 33.2386 131.554 32.2641 129.963 32.2641C127.895 32.2641 126.522 33.8948 126.522 36.2414C126.522 38.588 127.875 40.159 130.082 40.159ZM127.701 35.5653C127.78 34.3771 128.62 33.3181 129.963 33.3181C131.235 33.3181 132.051 34.2727 132.051 35.5653H127.701Z" fill="#2C2C2C"/>
<path d="M134.749 42.8636H135.922V38.8266H136.022C136.28 39.2443 136.777 40.159 138.249 40.159C140.158 40.159 141.49 38.6278 141.49 36.2016C141.49 33.7954 140.158 32.2641 138.229 32.2641C136.737 32.2641 136.28 33.1789 136.022 33.5766H135.882V32.3636H134.749V42.8636ZM135.902 36.1818C135.902 34.4715 136.658 33.3181 138.09 33.3181C139.581 33.3181 140.317 34.571 140.317 36.1818C140.317 37.8124 139.561 39.105 138.09 39.105C136.678 39.105 135.902 37.9119 135.902 36.1818Z" fill="#2C2C2C"/>
<path d="M144.173 29.8181H143V39.9999H144.173V29.8181Z" fill="#2C2C2C"/>
<path d="M149.145 40.159C151.213 40.159 152.605 38.588 152.605 36.2215C152.605 33.8352 151.213 32.2641 149.145 32.2641C147.076 32.2641 145.684 33.8352 145.684 36.2215C145.684 38.588 147.076 40.159 149.145 40.159ZM149.145 39.105C147.574 39.105 146.858 37.7528 146.858 36.2215C146.858 34.6903 147.574 33.3181 149.145 33.3181C150.716 33.3181 151.432 34.6903 151.432 36.2215C151.432 37.7528 150.716 39.105 149.145 39.105Z" fill="#2C2C2C"/>
<path d="M154.598 42.8636C155.657 42.8636 156.403 42.3018 156.845 41.1136L160.097 32.3835L158.814 32.3636L156.706 38.4488H156.626L154.519 32.3636H153.246L156.07 40.0397L155.851 40.6363C155.423 41.7996 154.896 41.909 154.041 41.6903L153.743 42.7244C153.862 42.784 154.2 42.8636 154.598 42.8636Z" fill="#2C2C2C"/>
<path d="M0 24H162V25H0V24Z" fill="#2C2C2C"/>
</svg>
